<svg width="32" height="32" viewBox="0 0 32 32" fill="none" xmlns="http://www.w3.org/2000/svg">
<path fill-rule="evenodd" clip-rule="evenodd" d="M24 0H8C3.58172 0 0 3.58172 0 8V24C0 28.4183 3.58172 32 8 32H24C28.4183 32 32 28.4183 32 24V8C32 3.58172 28.4183 0 24 0ZM22.4 14.992C22.5974 16.3236 22.37 17.6835 21.75 18.8784C21.13 20.0733 20.149 21.0423 18.9466 21.6475C17.7441 22.2527 16.3815 22.4634 15.0524 22.2495C13.7234 22.0356 12.4956 21.4081 11.5437 20.4563C10.5918 19.5044 9.96434 18.2766 9.75048 16.9475C9.53662 15.6185 9.74728 14.2558 10.3525 13.0534C10.9577 11.851 11.9267 10.87 13.1215 10.25C14.3164 9.62998 15.6764 9.40254 17.008 9.59999C18.3662 9.80141 19.6237 10.4343 20.5947 11.4053C21.5656 12.3762 22.1986 13.6337 22.4 14.992ZM24.8 6.20001C24.2478 6.20001 23.8 6.64773 23.8 7.20001C23.8 7.7523 24.2478 8.20001 24.8 8.20001H24.816C25.3683 8.20001 25.816 7.7523 25.816 7.20001C25.816 6.64773 25.3683 6.20001 24.816 6.20001H24.8Z" fill="#E0E0E0"/>
</svg>
