<svg width="24" height="24" viewBox="0 0 24 24" fill="none" xmlns="http://www.w3.org/2000/svg">
<path d="M9 21H5C4.46957 21 3.96086 20.7893 3.58579 20.4142C3.21071 20.0391 3 19.5304 3 19V5C3 4.46957 3.21071 3.96086 3.58579 3.58579C3.96086 3.21071 4.46957 3 5 3H9" stroke="white" stroke-width="2" stroke-linecap="round" stroke-linejoin="round"/>
<path fill-rule="evenodd" clip-rule="evenodd" d="M16.7071 6.29289C16.3166 5.90237 15.6834 5.90237 15.2929 6.29289C14.9024 6.68342 14.9024 7.31658 15.2929 7.70711L18.5858 11H9C8.44772 11 8 11.4477 8 12C8 12.5523 8.44772 13 9 13H18.5858L15.2929 16.2929C14.9024 16.6834 14.9024 17.3166 15.2929 17.7071C15.6834 18.0976 16.3166 18.0976 16.7071 17.7071L21.7071 12.7071C21.8132 12.6011 21.8904 12.4772 21.9389 12.3451C21.9696 12.2616 21.9894 12.1729 21.9968 12.0806C22.0085 11.9348 21.9884 11.787 21.9364 11.6484C21.8878 11.5188 21.8114 11.3972 21.7071 11.2929L16.7071 6.29289Z" fill="white"/>
</svg>
