<svg width="32" height="32" viewBox="0 0 32 32" fill="none" xmlns="http://www.w3.org/2000/svg">
<path d="M32 2.96482C30.6071 3.94733 29.0649 4.6988 27.4327 5.19028C26.5567 4.18302 25.3925 3.4691 24.0975 3.14508C22.8025 2.82106 21.4393 2.90256 20.1921 3.37857C18.945 3.85458 17.8741 4.70213 17.1243 5.80659C16.3746 6.91105 15.9821 8.21913 16 9.55391V11.0085C13.4438 11.0747 10.9109 10.5078 8.62692 9.3582C6.3429 8.20857 4.37864 6.51193 2.90909 4.41937C2.90909 4.41937 -2.90909 17.5103 10.1818 23.3285C7.18622 25.3619 3.61768 26.3814 0 26.2376C13.0909 33.5103 29.0909 26.2376 29.0909 9.51028C29.0896 9.10512 29.0506 8.70096 28.9745 8.303C30.4591 6.83899 31.5067 4.99059 32 2.96482Z" fill="#E0E0E0"/>
</svg>
