<svg width="19" height="12" viewBox="0 0 19 12" fill="none" xmlns="http://www.w3.org/2000/svg">
<path d="M3.07301 0.951832C2.49412 0.359226 1.54444 0.348106 0.951832 0.926993C0.359226 1.50588 0.348106 2.45556 0.926993 3.04817L3.07301 0.951832ZM18.116 3.0023C18.6695 2.38597 18.6186 1.43759 18.0023 0.884032C17.386 0.330474 16.4376 0.381363 15.884 0.997695L18.116 3.0023ZM9.06884 9.23634L7.99583 10.2845L9.06884 9.23634ZM10.5282 9.20577L9.41218 8.20346L10.5282 9.20577ZM0.926993 3.04817L7.99583 10.2845L10.1418 8.18818L3.07301 0.951832L0.926993 3.04817ZM11.6441 10.2081L18.116 3.0023L15.884 0.997695L9.41218 8.20346L11.6441 10.2081ZM7.99583 10.2845C9.00551 11.3181 10.6786 11.2831 11.6441 10.2081L9.41218 8.20346C9.60528 7.98847 9.93991 7.98145 10.1418 8.18818L7.99583 10.2845Z" fill="#51d206"/>
</svg>
