<svg width="24" height="24" viewBox="0 0 24 24" fill="none" xmlns="http://www.w3.org/2000/svg">
<rect x="3" y="3" width="18" height="18" rx="9" fill="black"/>
<path d="M22.9556 9.61583C22.4582 9.13332 21.9597 8.64712 21.4605 8.1574C21.4465 7.47906 21.4289 6.80101 21.4077 6.12331C21.3796 5.21559 20.9864 4.34961 20.3165 3.67692C19.6466 3.00424 18.7778 2.61441 17.871 2.58576C17.1933 2.56482 16.5154 2.54723 15.8376 2.53316C15.3489 2.03473 14.8645 1.53683 14.3842 1.03956C13.734 0.372584 12.8923 -0.000342882 11.9969 2.36559e-07C11.1015 0.000502862 10.2592 0.375286 9.61326 1.03956C9.13046 1.53781 8.64445 2.03675 8.15514 2.5365C7.4774 2.55024 6.79966 2.56783 6.12226 2.58911C4.25555 2.65278 2.64897 4.26048 2.58525 6.12619C2.56435 6.80453 2.54663 7.48258 2.53242 8.16028C2.03306 8.64965 1.53472 9.13568 1.03733 9.61819C0.372981 10.265 0 11.1095 0 12.0008C0 12.892 0.370803 13.7365 1.03733 14.3856C1.53468 14.8678 2.03404 15.3533 2.53524 15.8422C2.54862 16.5206 2.56617 17.1991 2.58774 17.8776C2.61633 18.7867 3.00903 19.6504 3.67839 20.324C4.34779 20.9977 5.21611 21.3865 6.12419 21.4147C6.80193 21.4363 7.47985 21.4539 8.15759 21.4677C8.64625 21.9659 9.13175 22.4633 9.61386 22.9604C10.2612 23.6276 11.1037 24.0005 12.0012 24C12.8986 23.9995 13.7388 23.6276 14.3884 22.9609C14.8706 22.463 15.3562 21.9646 15.8452 21.4655C16.523 21.4514 17.2007 21.4338 17.8781 21.4125C19.7445 21.3492 21.3509 19.7415 21.4146 17.8755C21.4358 17.1978 21.4532 16.5201 21.4671 15.8424C21.9665 15.3527 22.465 14.8665 22.9627 14.384C23.6269 13.7376 24 12.8941 24 11.9996C23.9998 11.1047 23.6208 10.265 22.9556 9.61583ZM17.956 10.4795C15.9348 12.5844 13.8812 14.7361 11.862 16.8705C11.5303 17.2227 11.0688 17.4225 10.5855 17.4231H10.5774C10.095 17.4199 9.63422 17.2217 9.29971 16.8734C8.21993 15.7559 7.13676 14.6426 6.05009 13.5333C5.71808 13.1988 5.53485 12.7443 5.54153 12.2726C5.54821 11.8008 5.74431 11.3518 6.0857 11.0268C6.42607 10.6972 6.88263 10.5154 7.35593 10.5215C7.82936 10.5274 8.28126 10.7202 8.61345 11.0583C9.2591 11.7216 9.90555 12.3869 10.5527 13.0538C12.1559 11.3702 13.7672 9.67626 15.3529 8.00913C16.026 7.29944 17.149 7.28773 17.8707 7.97261C18.5926 8.65735 18.6342 9.77349 17.956 10.4795Z" fill="#5E14F0"/>
</svg>
