<svg width="32" height="32" viewBox="0 0 32 32" fill="none" xmlns="http://www.w3.org/2000/svg">
<path fill-rule="evenodd" clip-rule="evenodd" d="M11.7146 15H20.2854C19.9943 11.0457 18.4979 7.27534 16 4.19828C13.5021 7.27534 12.0058 11.0457 11.7146 15ZM20.2854 17H11.7146C12.0058 20.9543 13.5021 24.7246 16 27.8017C18.4979 24.7246 19.9943 20.9543 20.2854 17ZM9.70973 15C10.01 10.4985 11.7259 6.20604 14.6113 2.7381C8.22755 3.39872 3.18085 8.56348 2.70361 15H9.70973ZM17.3887 2.7381C20.2741 6.20604 21.99 10.4985 22.2903 15H29.2964C28.8192 8.56348 23.7725 3.39872 17.3887 2.7381ZM9.70973 17H2.70361C3.18086 23.4365 8.22755 28.6012 14.6113 29.2619C11.7259 25.7939 10.01 21.5015 9.70973 17ZM17.3887 29.2619C20.2741 25.7939 21.99 21.5015 22.2903 17H29.2964C28.8192 23.4365 23.7725 28.6012 17.3887 29.2619Z" fill="#333333"/>
</svg>
